<svg xmlns="http://www.w3.org/2000/svg" xmlns:xlink="http://www.w3.org/1999/xlink" xmlns:fi="http://pattern.flaticon.com/" x="0" y="0" width="700" height="350" viewBox="0 0 700 350"><rect x="0px" y="0px" width="100%" height="100%" opacity="1" fill="#ffffff"/><defs><g transform="matrix(0.1171875 0 0 0.1171875 112 106)" id="L1_1"><path d="m174.496 302.117h163.008v209.883h128.496v-512h-128.496v190.921h-163.008v-190.921h-128.496v512h128.496z" fill="#a0e65c"/><path d="m337.504 190.921h-81.504v111.196h81.504v209.883h128.496v-512h-128.496z" fill="#79cc52"/></g><g transform="matrix(0.07793404161930084 0 0 0.07793404161930084 170.04888534545898 125.04888534545898)" id="L1_2"><path d="m451 400.126h-264.434v-100.635h237.642v-110.874h-237.642v-76.421h255.396v-112.196h-380.962v512h390z" fill="#ffbe40"/><g fill="#ff9f40"><path d="m256 400.126h195v111.874h-195z"/><path d="m256 188.617h168.208v110.874h-168.208z"/><path d="m256 0h185.962v112.196h-185.962z"/></g></g><g transform="matrix(0.0751725360751152 0 0 0.0751725360751152 213.7558307647705 127.75583076477051)" id="L1_3"><path d="m192.257 512h126.826v-213.992l189.2-298.008h-147.832l-104.458 172.02-102.583-172.02h-149.693l188.54 297.334z" fill="#c68cff"/><path d="m255.993 172.02v339.98h63.09v-213.992l189.2-298.008h-147.832z" fill="#aa80ff"/></g><g transform="matrix(0.07248274236917496 0 0 0.07248274236917496 133.4444179534912 227.4444179534912)" id="L1_5"><path d="m466 0v264.487c0 102.299 0 190.199-104.399 231.899-27.9 11.1-67.2 15.899-105.601 15.601-41.4-.3-81.899-6.601-106.5-17.1-103.5-44.7-103.5-132.9-103.5-226.5v-268.387h128.699v288.787c-.599 48.3.601 76.8 27.9 96.899 13.5 9.6 33.301 14.399 53.401 15 22.5.3 45.3-4.799 57.001-13.801 21.776-17.191 24.3-34.088 24.3-105.899v-280.986z" fill="#ff7f40"/><path d="m466 0v264.487c0 102.299 0 190.199-104.399 231.899-27.9 11.1-67.2 15.899-105.601 15.601v-111.301c22.5.3 45.3-4.799 57.001-13.801 21.776-17.191 24.3-34.088 24.3-105.899v-280.986z" fill="#f25a3c"/></g><g transform="matrix(0.07925489544868469 0 0 0.07925489544868469 173.88618506118655 244.71074676513672)" id="L1_16"><path d="m271.33 198.65c-11.12 3.15-33.31 4.15-55.83 4.39-21.34.23-42.98-.24-55.8-.24v-91.5c12.77-.04 35-.15 55.8-.06 8.75.09 40.15.15 48.3 1.26 23.7 4.2 35.7 18.6 35.7 43.2 0 20.9-8.468 37.048-28.17 42.95zm78.57 114.85v-.3c-7.5-7.8-15.6-15.6-25.2-23.1 65.4-20.7 102-70.5 102-140.4 0-63-33.3-116.1-84.6-135.9-24.6-9.3-61.8-13.8-114-13.8h-192.6v512h124.2v-202.1c36.71 0 34.85 5.89 48 20.1 2 2.19 4.63 5.45 7.8 9.66 20.91 27.74 70.28 105.84 96.32 146.31.874 1.342-2.339-3.628 16.78 26.03h147.9c-60.86-101.47-104.65-174.39-126.6-198.5z" fill="#a0e65c"/><path d="m476.5 512h-147.9c-18.774-29.123-16.148-25.043-16.78-26.03-26.04-40.47-75.41-118.57-96.32-146.31v-136.62c22.52-.24 44.71-1.24 55.83-4.39 19.7-5.9 28.17-22.05 28.17-42.95 0-24.6-12-39-35.7-43.2-8.15-1.11-39.55-1.17-48.3-1.26v-111.24h12.6c52.2 0 89.4 4.5 114 13.8 51.3 19.8 84.6 72.9 84.6 135.9 0 69.9-36.6 119.7-102 140.4 9.6 7.5 17.7 15.3 25.2 23.1v.3c21.95 24.11 65.74 97.03 126.6 198.5z" fill="#79cc52"/></g><g transform="matrix(0.06911145150661469 0 0 0.06911145150661469 217.30350103770297 266.30248832702637)" id="L1_13"><path d="m512.042 512c-68.952-178.368-130.106-333.632-199.058-512h-119.619c-67.073 178.368-126.25 333.632-193.323 512 3.359 0 137.557 0 133.103 0 1.293-3.687 39.485-112.558 38.247-109.028h164.18c1.373 3.699 41.773 112.57 40.459 109.028m-165.337-219.902 45.059-118.286 38.906 118.286z" fill="#ff7f40"/><path d="m512.042 512c-68.952-178.369-130.106-333.631-199.058-512h-57.231v173.812l38.906 118.286h-38.906v110.874h79.819c1.373 3.699 41.774 112.57 40.459 109.028" fill="#f25a3c"/></g><g transform="matrix(0.07852298021316528 0 0 0.07852298021316528 250.8981170654297 281.8981170654297)" id="L1_14"><path d="m320.717 512v-400.804h145.283v-111.196h-420v111.196h145.62v400.804z" fill="#c68cff"/><path d="m256 512h64.717v-400.804h145.283v-111.196h-210z" fill="#aa80ff"/></g><g transform="matrix(0.07699613273143768 0 0 0.07699613273143768 288.28899002075195 302.28899002075195)" id="L1_15"><path d="m142.519 255.678c0-93.223 40.415-144.565 113.804-144.565 72.759 0 112.837 50.889 112.837 143.306 0 93.091-41.133 146.47-112.837 146.47-71.265-.001-113.804-54.288-113.804-145.211zm351.811-34.928c-13.08-136.31-101.87-220.49-238.33-220.75h-.63c-149.88 0-239.37 97.4-239.37 258.86 0 155.3 91.94 252.87 240 253.14h.63c147.64 0 239.37-98.47 239.37-255.37 0-12.3-.56-24.27-1.67-35.88z" fill="#34b9f5"/><path d="m496 256.63c0 156.9-91.73 255.37-239.37 255.37h-.63v-111.14c.11 0 .21.03.32.03 71.71 0 112.84-53.38 112.84-146.47 0-92.42-40.08-143.31-112.84-143.31-.11 0-.21.03-.32.03v-111.14c136.46.26 225.25 84.44 238.33 220.75 1.11 11.61 1.67 23.58 1.67 35.88z" fill="#f25a3c"/></g><g transform="matrix(0.07333388179540634 0 0 0.07333388179540634 330.4293492445722 309.226526260376)" id="L1_17"><path d="m271.33 198.65c-11.12 3.15-33.31 4.15-55.83 4.39-21.34.23-42.98-.24-55.8-.24v-91.5c12.77-.04 35-.15 55.8-.06 8.75.09 40.15.15 48.3 1.26 23.7 4.2 35.7 18.6 35.7 43.2 0 20.9-8.468 37.048-28.17 42.95zm78.57 114.85v-.3c-7.5-7.8-15.6-15.6-25.2-23.1 65.4-20.7 102-70.5 102-140.4 0-63-33.3-116.1-84.6-135.9-24.6-9.3-61.8-13.8-114-13.8h-192.6v512h124.2v-202.1c36.71 0 34.85 5.89 48 20.1 2 2.19 4.63 5.45 7.8 9.66 20.91 27.74 70.28 105.84 96.32 146.31.874 1.342-2.339-3.628 16.78 26.03h147.9c-60.86-101.47-104.65-174.39-126.6-198.5z" fill="#a0e65c"/><path d="m476.5 512h-147.9c-18.774-29.123-16.148-25.043-16.78-26.03-26.04-40.47-75.41-118.57-96.32-146.31v-136.62c22.52-.24 44.71-1.24 55.83-4.39 19.7-5.9 28.17-22.05 28.17-42.95 0-24.6-12-39-35.7-43.2-8.15-1.11-39.55-1.17-48.3-1.26v-111.24h12.6c52.2 0 89.4 4.5 114 13.8 51.3 19.8 84.6 72.9 84.6 135.9 0 69.9-36.6 119.7-102 140.4 9.6 7.5 17.7 15.3 25.2 23.1v.3c21.95 24.11 65.74 97.03 126.6 198.5z" fill="#79cc52"/></g><g transform="matrix(0.1171875 0 0 0.1171875 79.99999965667723 194)" id="L1_24"><path d="m466.321 445.638c-6.56 8.189-15.16 15.968-25.39 23.107v.01c-22.97 16.048-54.18 28.947-89.02 36.296-21.99 4.649-44.28 6.949-66.19 6.949-32.56 0-64.28-5.089-92.94-15.148-44.49-15.608-79.87-42.185-105.15-78.981-28.93-42.105-43.6-96.569-43.6-161.871s14.67-119.766 43.6-161.871c25.28-36.796 60.66-63.373 105.15-78.981 47.95-16.828 104.46-19.748 159.13-8.199 34.84 7.349 66.05 20.258 89.02 36.306 10.23 7.149 18.83 14.918 25.39 23.107 2.57 3.21 2.08 7.879-1.1 10.489-.62.51-62.49 51.534-92.92 96.379-1.13 1.67-2.88 2.81-4.86 3.17s-4.02-.08-5.66-1.24c-8.28-5.819-17.83-10.579-28.11-14.078-9.17-3.14-18.93-5.259-28.88-6.239-22.29-2.21-43.26 1.4-60.65 10.429-30.84 16.008-47.14 47.385-47.14 90.729 0 43.345 16.3 74.721 47.14 90.729 17.39 9.029 38.36 12.639 60.65 10.429 9.95-.98 19.71-3.1 28.88-6.239 10.28-3.5 19.83-8.259 28.11-14.078 1.64-1.16 3.68-1.6 5.66-1.24s3.73 1.5 4.86 3.17c30.43 44.845 92.3 95.869 92.92 96.379 3.18 2.608 3.67 7.277 1.1 10.487z" fill="#f590f3"/><path d="m466.321 445.638c-6.56 8.189-15.16 15.968-25.39 23.107-22.3-21.167-64.74-63.622-107.26-117.826 10.28-3.5 19.83-8.259 28.11-14.078 1.64-1.16 3.68-1.6 5.66-1.24s3.73 1.5 4.86 3.17c30.43 44.845 92.3 95.869 92.92 96.379 3.18 2.609 3.67 7.278 1.1 10.488z" fill="#f0aaef"/><path d="m465.221 76.851c-.62.51-62.49 51.534-92.92 96.379-1.13 1.67-2.88 2.81-4.86 3.17s-4.02-.08-5.66-1.24c-8.28-5.819-17.83-10.579-28.11-14.078 42.52-54.204 84.96-96.659 107.26-117.826 10.23 7.149 18.83 14.918 25.39 23.107 2.57 3.209 2.08 7.879-1.1 10.488z" fill="#f0aaef"/><path d="m420.061 435.479c1.71 1.57 2.6 3.85 2.4 6.169s-1.46 4.41-3.42 5.669c-5.89 3.78-13.69 8.179-23.55 12.568-12.94 5.759-29.43 11.489-49.84 15.798-19.98 4.209-40.18 6.299-59.99 6.299-29.21 0-57.56-4.539-83.1-13.518-38.32-13.478-68.68-36.256-90.26-67.682-25.39-36.996-38.27-85.7-38.27-144.783s12.88-107.787 38.27-144.783c21.58-31.426 51.94-54.204 90.26-67.682 25.52-8.969 53.47-13.528 83.08-13.528 19.97 0 40.16 2.13 60.01 6.309 21.24 4.479 38.24 10.509 51.4 16.498 9.13 4.16 16.41 8.289 21.99 11.869 1.96 1.26 3.22 3.35 3.42 5.669s-.69 4.599-2.4 6.169c-15.48 14.198-37.85 35.876-56.45 58.473-2.13 2.58-5.71 3.45-8.78 2.11-8.27-3.59-17.06-6.489-26.05-8.619-6.95-1.65-14.03-2.84-21.08-3.539-28.11-2.77-54.89 1.96-77.46 13.708-40.78 21.207-63.24 62.882-63.24 117.346s22.46 96.139 63.24 117.346c22.57 11.749 49.35 16.488 77.46 13.708 6.86-.68 13.74-1.82 20.51-3.41 9.19-2.14 18.18-5.089 26.62-8.749 3.07-1.34 6.65-.47 8.78 2.11 18.6 22.599 40.97 44.277 56.45 58.475z" fill="#ffabfe"/><g fill="#ff60cf"><path d="m420.061 76.521c-15.48 14.198-37.85 35.876-56.45 58.473-2.13 2.58-5.71 3.45-8.78 2.11-8.27-3.59-17.06-6.489-26.05-8.619 12.98-19.378 35.93-49.364 68.27-75.671 9.13 4.16 16.41 8.289 21.99 11.869 1.96 1.26 3.22 3.35 3.42 5.669s-.69 4.6-2.4 6.169z" fill="#ff99f0"/><path d="m422.461 441.648c-.2 2.32-1.46 4.41-3.42 5.669-5.89 3.78-13.69 8.179-23.55 12.568-31.33-26.937-53.92-56.403-67.28-76.241 9.19-2.14 18.18-5.089 26.62-8.749 3.07-1.34 6.65-.47 8.78 2.11 18.6 22.597 40.97 44.275 56.45 58.473 1.71 1.571 2.6 3.851 2.4 6.17z" fill="#ff99f0"/></g></g></defs><g fi:class="KUsePattern"><pattern id="pattern_L1_1" width="350" height="350" patternUnits="userSpaceOnUse"><use xlink:href="#L1_1" x="-350" y="-350"/><use xlink:href="#L1_1" x="0" y="-350"/><use xlink:href="#L1_1" x="350" y="-350"/><use xlink:href="#L1_1" x="-350" y="0"/><use xlink:href="#L1_1" x="0" y="0"/><use xlink:href="#L1_1" x="350" y="0"/><use xlink:href="#L1_1" x="-350" y="350"/><use xlink:href="#L1_1" x="0" y="350"/><use xlink:href="#L1_1" x="350" y="350"/></pattern><rect x="0" y="0" width="100%" height="100%" fill="url(#pattern_L1_1)"/></g><g fi:class="KUsePattern"><pattern id="pattern_L1_2" width="350" height="350" patternUnits="userSpaceOnUse"><use xlink:href="#L1_2" x="-350" y="-350"/><use xlink:href="#L1_2" x="0" y="-350"/><use xlink:href="#L1_2" x="350" y="-350"/><use xlink:href="#L1_2" x="-350" y="0"/><use xlink:href="#L1_2" x="0" y="0"/><use xlink:href="#L1_2" x="350" y="0"/><use xlink:href="#L1_2" x="-350" y="350"/><use xlink:href="#L1_2" x="0" y="350"/><use xlink:href="#L1_2" x="350" y="350"/></pattern><rect x="0" y="0" width="100%" height="100%" fill="url(#pattern_L1_2)"/></g><g fi:class="KUsePattern"><pattern id="pattern_L1_3" width="350" height="350" patternUnits="userSpaceOnUse"><use xlink:href="#L1_3" x="-350" y="-350"/><use xlink:href="#L1_3" x="0" y="-350"/><use xlink:href="#L1_3" x="350" y="-350"/><use xlink:href="#L1_3" x="-350" y="0"/><use xlink:href="#L1_3" x="0" y="0"/><use xlink:href="#L1_3" x="350" y="0"/><use xlink:href="#L1_3" x="-350" y="350"/><use xlink:href="#L1_3" x="0" y="350"/><use xlink:href="#L1_3" x="350" y="350"/></pattern><rect x="0" y="0" width="100%" height="100%" fill="url(#pattern_L1_3)"/></g><g fi:class="KUsePattern"><pattern id="pattern_L1_5" width="350" height="350" patternUnits="userSpaceOnUse"><use xlink:href="#L1_5" x="-350" y="-350"/><use xlink:href="#L1_5" x="0" y="-350"/><use xlink:href="#L1_5" x="350" y="-350"/><use xlink:href="#L1_5" x="-350" y="0"/><use xlink:href="#L1_5" x="0" y="0"/><use xlink:href="#L1_5" x="350" y="0"/><use xlink:href="#L1_5" x="-350" y="350"/><use xlink:href="#L1_5" x="0" y="350"/><use xlink:href="#L1_5" x="350" y="350"/></pattern><rect x="0" y="0" width="100%" height="100%" fill="url(#pattern_L1_5)"/></g><g fi:class="KUsePattern"><pattern id="pattern_L1_16" width="350" height="350" patternUnits="userSpaceOnUse"><use xlink:href="#L1_16" x="-350" y="-350"/><use xlink:href="#L1_16" x="0" y="-350"/><use xlink:href="#L1_16" x="350" y="-350"/><use xlink:href="#L1_16" x="-350" y="0"/><use xlink:href="#L1_16" x="0" y="0"/><use xlink:href="#L1_16" x="350" y="0"/><use xlink:href="#L1_16" x="-350" y="350"/><use xlink:href="#L1_16" x="0" y="350"/><use xlink:href="#L1_16" x="350" y="350"/></pattern><rect x="0" y="0" width="100%" height="100%" fill="url(#pattern_L1_16)"/></g><g fi:class="KUsePattern"><pattern id="pattern_L1_13" width="350" height="350" patternUnits="userSpaceOnUse"><use xlink:href="#L1_13" x="-350" y="-350"/><use xlink:href="#L1_13" x="0" y="-350"/><use xlink:href="#L1_13" x="350" y="-350"/><use xlink:href="#L1_13" x="-350" y="0"/><use xlink:href="#L1_13" x="0" y="0"/><use xlink:href="#L1_13" x="350" y="0"/><use xlink:href="#L1_13" x="-350" y="350"/><use xlink:href="#L1_13" x="0" y="350"/><use xlink:href="#L1_13" x="350" y="350"/></pattern><rect x="0" y="0" width="100%" height="100%" fill="url(#pattern_L1_13)"/></g><g fi:class="KUsePattern"><pattern id="pattern_L1_14" width="350" height="350" patternUnits="userSpaceOnUse"><use xlink:href="#L1_14" x="-350" y="-350"/><use xlink:href="#L1_14" x="0" y="-350"/><use xlink:href="#L1_14" x="350" y="-350"/><use xlink:href="#L1_14" x="-350" y="0"/><use xlink:href="#L1_14" x="0" y="0"/><use xlink:href="#L1_14" x="350" y="0"/><use xlink:href="#L1_14" x="-350" y="350"/><use xlink:href="#L1_14" x="0" y="350"/><use xlink:href="#L1_14" x="350" y="350"/></pattern><rect x="0" y="0" width="100%" height="100%" fill="url(#pattern_L1_14)"/></g><g fi:class="KUsePattern"><pattern id="pattern_L1_15" width="350" height="350" patternUnits="userSpaceOnUse"><use xlink:href="#L1_15" x="-350" y="-350"/><use xlink:href="#L1_15" x="0" y="-350"/><use xlink:href="#L1_15" x="350" y="-350"/><use xlink:href="#L1_15" x="-350" y="0"/><use xlink:href="#L1_15" x="0" y="0"/><use xlink:href="#L1_15" x="350" y="0"/><use xlink:href="#L1_15" x="-350" y="350"/><use xlink:href="#L1_15" x="0" y="350"/><use xlink:href="#L1_15" x="350" y="350"/></pattern><rect x="0" y="0" width="100%" height="100%" fill="url(#pattern_L1_15)"/></g><g fi:class="KUsePattern"><pattern id="pattern_L1_17" width="350" height="350" patternUnits="userSpaceOnUse"><use xlink:href="#L1_17" x="-350" y="-350"/><use xlink:href="#L1_17" x="0" y="-350"/><use xlink:href="#L1_17" x="350" y="-350"/><use xlink:href="#L1_17" x="-350" y="0"/><use xlink:href="#L1_17" x="0" y="0"/><use xlink:href="#L1_17" x="350" y="0"/><use xlink:href="#L1_17" x="-350" y="350"/><use xlink:href="#L1_17" x="0" y="350"/><use xlink:href="#L1_17" x="350" y="350"/></pattern><rect x="0" y="0" width="100%" height="100%" fill="url(#pattern_L1_17)"/></g><g fi:class="KUsePattern"><pattern id="pattern_L1_24" width="350" height="350" patternUnits="userSpaceOnUse"><use xlink:href="#L1_24" x="-350" y="-350"/><use xlink:href="#L1_24" x="0" y="-350"/><use xlink:href="#L1_24" x="350" y="-350"/><use xlink:href="#L1_24" x="-350" y="0"/><use xlink:href="#L1_24" x="0" y="0"/><use xlink:href="#L1_24" x="350" y="0"/><use xlink:href="#L1_24" x="-350" y="350"/><use xlink:href="#L1_24" x="0" y="350"/><use xlink:href="#L1_24" x="350" y="350"/></pattern><rect x="0" y="0" width="100%" height="100%" fill="url(#pattern_L1_24)"/></g></svg>